<?xml version="1.0" standalone="no"?>
<!DOCTYPE svg PUBLIC "-//W3C//DTD SVG 20010904//EN"
 "http://www.w3.org/TR/2001/REC-SVG-20010904/DTD/svg10.dtd">
<svg version="1.0" xmlns="http://www.w3.org/2000/svg"
 width="700.000000pt" height="700.000000pt" viewBox="0 0 700.000000 700.000000"
 preserveAspectRatio="xMidYMid meet">
<metadata>
Created by potrace 1.11, written by Peter Selinger 2001-2013
</metadata>
<g transform="translate(0.000000,700.000000) scale(0.100000,-0.100000)"
fill="#000000" stroke="none">
<path d="M4419 6148 c-26 -11 -194 -172 -500 -478 l-462 -461 -188 188 c-104
103 -205 197 -225 207 -45 24 -107 27 -160 9 -33 -11 -284 -258 -1444 -1417
-772 -772 -1410 -1416 -1418 -1432 -9 -16 -17 -54 -18 -84 -6 -152 145 -253
283 -191 30 14 389 367 1340 1318 715 714 1306 1304 1315 1311 14 11 184 -154
1335 -1305 1136 -1136 1324 -1320 1359 -1331 103 -30 191 2 248 92 26 42 31
132 9 179 -12 25 -263 284 -717 737 l-699 699 -2 478 c-1 531 0 520 -68 580
-101 89 -255 59 -315 -60 -21 -41 -22 -57 -22 -310 -1 -147 -4 -267 -8 -267
-4 0 -77 70 -161 155 l-155 154 375 376 c205 206 376 375 379 375 3 0 491
-486 1085 -1080 757 -757 1093 -1086 1122 -1101 157 -76 328 69 283 239 -12
43 -59 93 -599 635 l-586 587 -1 393 c-1 333 -3 397 -17 427 -72 162 -296 163
-372 3 -15 -31 -18 -69 -19 -225 l-1 -187 -395 393 c-356 354 -399 394 -440
405 -55 14 -91 12 -141 -11z"/>
<path d="M2875 4791 c-51 -23 -2244 -2214 -2272 -2269 -17 -35 -18 -77 -18
-667 0 -583 1 -634 18 -680 19 -53 62 -131 84 -153 7 -7 18 -21 25 -30 41 -54
155 -121 248 -146 82 -22 1186 -22 1279 0 87 20 174 68 237 131 72 72 111 146
141 268 3 11 6 223 7 470 3 430 4 453 24 509 57 158 220 262 362 231 75 -16
192 -104 228 -171 44 -83 45 -100 47 -574 3 -500 3 -502 67 -621 63 -120 196
-219 333 -248 32 -7 258 -10 635 -10 581 0 586 1 655 23 68 22 136 57 163 83
7 7 19 16 25 20 23 14 94 107 116 150 49 98 51 131 51 758 -1 512 -3 591 -17
635 -15 47 -93 127 -1126 1161 -611 610 -1123 1117 -1139 1125 -46 24 -126 26
-173 5z"/>
</g>
</svg>
